# xmcd CD database file
#
# Track frame offsets:
#	150
#	12618
#	27755
#	42666
#	57137
#
# Disc length: 993 seconds
#
# Revision: 0
# Processed by: cddbd v1.5.2PL0 Copyright (c) Steve Scherf et al.
# Submitted via: CDex 1.70beta2
#
DISCID=3c03df05
DTITLE=Outlaw Junkies - Outlaw Junkies
DYEAR=2007
DGENRE=Country
TTITLE0=Men From the Boys
TTITLE1=Redneck Rich, Hillbilly Happy
TTITLE2=She Could Do Better
TTITLE3=It's Not You, It's Her
TTITLE4=Loud American
EXTD=YEAR: 2007
EXTT0=
EXTT1=
EXTT2=
EXTT3=
EXTT4=
PLAYORDER=
